<?xml version="1.0" encoding="UTF-8" standalone="no"?>
<svg width="20px" height="20px" viewBox="0 0 20 20" version="1.1" xmlns="http://www.w3.org/2000/svg" xmlns:xlink="http://www.w3.org/1999/xlink" xmlns:sketch="http://www.bohemiancoding.com/sketch/ns">
    <!-- Generator: Sketch 3.3.2 (12043) - http://www.bohemiancoding.com/sketch -->
    <title>1443179908_38-instagram</title>
    <desc>Created with Sketch.</desc>
    <defs></defs>
    <g id="Page-1" stroke="none" stroke-width="1" fill="none" fill-rule="evenodd" sketch:type="MSPage">
        <g id="Speed-Dial" sketch:type="MSArtboardGroup" transform="translate(-300.000000, -170.000000)" fill="#FFFFFF">
            <g id="Play-Copy-2" sketch:type="MSLayerGroup" transform="translate(290.000000, 160.000000)">
                <g id="1443179908_38-instagram" transform="translate(10.000000, 9.800000)" sketch:type="MSShapeGroup">
                    <path d="M16.1656,0.3324 L4,0.3324 C1.8868,0.3324 0.1676,2.0512 0.1676,4.1644 L0.1676,8.2124 L0.1676,16.3304 C0.1676,18.4436 1.8868,20.1624 4,20.1624 L16.166,20.1624 C18.2792,20.1624 19.998,18.4436 19.998,16.3304 L19.998,8.212 L19.998,4.164 C19.9976,2.0508 18.2788,0.3324 16.1656,0.3324 L16.1656,0.3324 Z M17.2648,2.6176 L17.7032,2.616 L17.7032,3.0524 L17.7032,5.9772 L14.3532,5.988 L14.3416,2.6272 L17.2648,2.6176 L17.2648,2.6176 Z M7.2524,8.212 C7.8876,7.3332 8.918,6.7568 10.0828,6.7568 C11.2476,6.7568 12.278,7.3332 12.9124,8.212 C13.3256,8.7856 13.5732,9.4872 13.5732,10.2472 C13.5732,12.1716 12.006,13.7372 10.0824,13.7372 C8.1576,13.7372 6.592,12.1716 6.592,10.2472 C6.5924,9.4872 6.8392,8.7856 7.2524,8.212 L7.2524,8.212 Z M18.0656,16.33 C18.0656,17.3784 17.2132,18.23 16.1656,18.23 L4,18.23 C2.952,18.23 2.0996,17.3784 2.0996,16.33 L2.0996,8.212 L5.0596,8.212 C4.804,8.8408 4.6604,9.5276 4.6604,10.2472 C4.6604,13.2364 7.0924,15.67 10.0828,15.67 C13.0728,15.67 15.5048,13.2364 15.5048,10.2472 C15.5048,9.5276 15.3604,8.8408 15.1048,8.212 L18.0656,8.212 L18.0656,16.33 L18.0656,16.33 Z" id="Shape"></path>
                </g>
            </g>
        </g>
    </g>
</svg>