<?xml version="1.0" encoding="UTF-8" standalone="no"?>
<svg width="111px" height="16px" viewBox="0 0 111 16" version="1.1" xmlns="http://www.w3.org/2000/svg" xmlns:xlink="http://www.w3.org/1999/xlink" xmlns:sketch="http://www.bohemiancoding.com/sketch/ns">
    <!-- Generator: Sketch 3.3.2 (12043) - http://www.bohemiancoding.com/sketch -->
    <title>ALVA TAPE</title>
    <desc>Created with Sketch.</desc>
    <defs>
        <linearGradient x1="50%" y1="12.6445897%" x2="49.7336336%" y2="44.9823726%" id="linearGradient-1">
            <stop stop-color="#00EAB6" offset="0%"></stop>
            <stop stop-color="#0A889E" offset="100%"></stop>
        </linearGradient>
    </defs>
    <g id="Page-1" stroke="none" stroke-width="1" fill="none" fill-rule="evenodd" sketch:type="MSPage">
        <g id="Album-view-hi-fi" sketch:type="MSArtboardGroup" transform="translate(-61.000000, -22.000000)" fill="url(#linearGradient-1)">
            <g id="Nav" sketch:type="MSLayerGroup">
                <path d="M72.56,31.1 C72.62,30.22 71.86,29.54 71.88,29.3 C71.92,28.74 72.08,28.16 72.2,27.72 C72.14,27.68 72.12,27.68 72.08,27.64 C72.38,27.46 72.42,25.74 72.4,25.64 C72.02,25.06 72.44,23.98 71.7,23.34 C71.6,23.26 71.1,23.64 71.12,23.3 L71.48,23.18 C71.18,22.94 70.62,22.7 70.36,22.62 C70.32,23 69.76,22.8 69.62,22.92 C68.84,23.54 67.9,24.38 66.96,25.62 C65.08,28.14 61.74,31.38 61.3,34.4 L61.62,34.4 C61.4,34.92 62.26,35.18 62.32,35.8 L63.58,36.34 C63.9,35.92 64.2,35.1 64.54,34.4 L64.46,34.16 L64.56,33.9 C65.46,33.28 68.48,31.66 69.62,31.7 C69.66,32 69.56,32.06 69.58,32.3 L69.24,31.88 C69.18,32.12 69.12,32.82 69.06,33.1 C69.3,33.2 69.3,32.76 69.32,32.44 L69.56,32.54 C69.52,33 69.3,33.82 69.16,33.82 C69.18,33.52 69.18,33.26 69.04,33.26 C68.92,33.86 68.68,34.44 68.64,34.9 C68.64,35.04 68.72,35.1 68.82,35.1 C68.8,35.24 68.72,35.3 68.62,35.3 L68.6,35.58 C68.88,35.58 68.94,35.74 68.92,36.14 C69.24,36.02 69.8,36.62 70.42,36.62 C70.62,36.02 70.78,35.48 70.82,34.8 C70.78,34.84 70.58,34.94 70.6,34.86 C71.02,34.3 70.94,34.08 70.82,33.78 C71.08,33.54 71.24,33.04 70.96,32.88 C71.38,32.48 71.32,31.6 71.48,31.26 C71.82,31.22 72.2,31.14 72.56,31.1 L72.56,31.1 Z M70.94,25.38 C70.72,26.28 70.44,27.9 70.2,28.52 L69.86,28.22 C69.78,28.5 69.58,28.88 69.52,29.4 C68.8,29.6 68.38,29.68 67.68,29.98 C66.88,30.32 66.58,30.74 66.18,30.98 C66.64,30.32 67.18,29.46 67.54,29 C67.8,28.68 68.08,28.32 68.38,27.92 C68.2,27.54 68.34,27.36 68.66,27 C68.74,27.08 68.68,27.2 68.62,27.36 L68.72,27.46 C69.58,26.32 70.5,25.2 70.88,25.18 L70.94,25.38 Z M69.98,29.14 L69.96,29.36 C69.82,29.38 69.68,29.38 69.76,29.14 L69.98,29.14 Z M69.96,29.02 L69.78,29.02 L69.86,28.8 L69.94,28.82 L69.96,29.02 Z M69.26,33.9 L69.18,34.22 L69.06,34.22 L69.14,33.96 L69.26,33.9 Z M66.44,32.42 L64.92,33.22 C65,33.08 65.04,33 65.14,32.86 C65.52,32.66 66.18,32.22 66.44,32.42 L66.44,32.42 Z M66.68,32.3 C66.76,31.98 66.94,31.94 67.38,31.92 L67.38,31.94 C67.16,32.08 66.86,32.2 66.68,32.3 L66.68,32.3 Z M70.68,25.74 L70.5,25.82 L70.34,26.36 L70.52,26.36 L70.68,25.74 Z M65.34,32.5 L65.58,32.16 C65.72,32.1 65.84,32.08 66,32.02 C65.88,32.3 65.42,32.46 65.34,32.5 L65.34,32.5 Z M88.3914287,30.26 C88.3714287,30.12 87.8514287,30.4 87.5514287,30.52 C87.5314287,30.48 87.2514287,30.3 87.0114287,30.22 C86.3114287,30.38 85.0514287,30.94 84.4314287,31.16 L84.2314287,31.04 C84.7514287,30.72 85.5714287,30.52 86.1914287,30.32 L86.1914287,30.3 C86.0514287,30.28 85.9714287,30.24 85.9514287,30.2 C85.2714287,30.4 84.2314287,30.74 83.9714287,30.74 C83.6914287,30.74 83.6714287,30.64 83.3914287,30.64 C83.2914287,30.64 82.4914287,30.96 82.3914287,31.06 C82.2314287,30.78 81.9314287,30.68 81.6114287,30.68 C81.3514287,30.68 81.0914287,30.74 80.8714287,30.8 C80.7114287,30.84 80.4514287,30.88 79.0914287,31.3 C78.8514287,30.72 79.5314287,30.38 79.7514287,29.98 C79.9114287,29.7 80.0314287,29.18 80.2114287,28.92 C80.5514287,28.44 81.1914287,27.84 81.4314287,27.42 C81.7914287,26.76 82.8114287,24.48 82.8114287,24.24 C82.8114287,23.28 82.2314287,22.38 81.1114287,22.38 L81.1114287,22.7 C79.2914287,25.04 75.6914287,30.44 75.3514287,33.96 L75.5914287,33.96 C75.8514287,33.96 76.1914287,34.58 76.4914287,34.88 L76.9514287,34.88 C77.0114287,35 77.1314287,35.1 77.2914287,35.1 C77.5514287,35.1 78.0514287,35.06 78.2914287,35.02 C78.5314287,35 78.9514287,34.6 79.2114287,34.5 C80.6514287,33.92 82.6514287,33.16 83.9114287,32.72 C84.3314287,32.58 84.6714287,32.46 85.1314287,32.46 C85.4114287,32.46 86.2514287,32.02 86.6314287,31.84 C86.7114287,31.8 86.5514287,31.74 86.4514287,31.76 C85.0914287,32.3 84.5114287,32 84.8714287,31.64 C84.9114287,31.7 84.9714287,31.74 85.2114287,31.74 C85.4114287,31.76 85.7314287,31.68 86.1514287,31.4 C87.1714287,31.14 88.4514287,30.54 88.3914287,30.26 L88.3914287,30.26 Z M84.4314287,32.28 L79.4714287,33.92 L79.4514287,33.84 C80.8314287,33.16 83.0514287,32.34 84.1114287,32.14 L84.4314287,32.28 Z M88.1914287,29.88 C88.1914287,29.78 87.4914287,30.02 87.4114287,30.08 C87.5114287,30.12 87.6114287,30.18 87.7114287,30.26 C87.8514287,30.16 88.1914287,30 88.1914287,29.88 L88.1914287,29.88 Z M86.7714287,30.08 C86.8714287,30.04 86.8914287,29.92 86.6714287,29.98 L86.2714287,30.1 C86.2114287,30.12 86.3714287,30.22 86.4314287,30.2 L86.7714287,30.08 Z M88.1514287,31.14 C87.9914287,31.02 87.8514287,31.1 86.6714287,31.62 L86.6714287,31.64 C86.7314287,31.72 86.8114287,31.76 86.9514287,31.7 L88.1514287,31.14 Z M82.4714287,31.22 C82.7114287,31.06 82.9314287,31.08 83.0314287,31.14 L82.5914287,31.38 L82.4714287,31.22 Z M80.0314287,28.86 L79.7514287,28.86 C79.7514287,28.74 79.8314287,28.5 80.0314287,28.5 L80.0314287,28.86 Z M79.1114287,30.1 L78.7514287,30.86 C78.4914287,30.74 78.7314287,30.4 78.8714287,30.04 L79.1114287,30.1 Z M101.622857,25.06 L101.482857,25.02 C101.802857,24.5 102.302857,23.84 102.602857,23.5 L102.542857,23.48 C102.342857,23.42 102.042857,23.74 101.842857,23.98 C101.782857,23.64 102.162857,23.3 102.382857,23.12 C102.022857,22.82 101.782857,23.36 101.522857,23.34 C101.262857,23.7 100.002857,25.02 99.2428573,25.64 C99.0828573,25.7 98.9628573,25.64 99.0428573,25.56 C99.8428573,24.84 100.702857,23.9 100.922857,23.6 C100.842857,23.42 100.542857,23.38 100.382857,23.56 L99.6028573,24.4 C98.5828573,24.3 98.8028573,25.08 97.9628573,25.04 C96.3628573,27.18 94.7428573,29.14 92.7628573,30.94 L92.4428573,30.06 C92.6228573,29.48 92.7628573,28.86 92.8628573,28.24 L93.0828573,28.2 C93.1428573,27.62 92.7228573,27.1 92.9628573,26.42 C92.8828573,24.74 92.2428573,23.26 90.7028573,22.64 C90.2428573,23 90.6828573,23.78 90.6628573,24.24 C90.5828573,25.42 90.2228573,31.98 90.2628573,33.12 C90.2828573,33.94 90.8628573,34.5 91.2028573,35.1 L92.4428573,35.52 C94.6428573,33.12 97.5228573,30.42 99.0828573,28.22 C99.2828573,27.94 99.4228573,27.54 99.7028573,27.54 C100.062857,27.52 99.8428573,26.52 100.662857,26.62 C101.722857,25.94 102.422857,24.26 103.422857,23.44 C103.402857,23.34 103.262857,23.32 103.142857,23.4 C102.542857,23.9 101.982857,24.62 101.622857,25.06 L101.622857,25.06 Z M92.3228573,29.52 L92.2828573,29.84 C92.1428573,29.84 92.0828573,29.68 92.1028573,29.52 L92.3228573,29.52 Z M99.7628573,26.8 C99.7428573,27.06 99.6228573,27.28 99.4228573,27.3 C99.3428573,27.3 99.2228573,27.28 99.1028573,27.18 L99.7628573,26.8 Z M92.3628573,29.38 L92.1428573,29.3 L92.2228573,28.94 C92.5228573,28.94 92.3628573,29.2 92.3628573,29.38 L92.3628573,29.38 Z M101.442857,25.32 C101.382857,25.44 101.202857,25.72 100.922857,25.94 C100.662857,26.14 100.582857,25.84 100.822857,25.72 L101.242857,25.3 C101.262857,25.26 101.322857,25.38 101.442857,25.32 L101.442857,25.32 Z M102.562857,23.28 C102.642857,23.28 102.722857,23.28 102.762857,23.34 C102.962857,23.12 103.062857,23.04 103.162857,22.98 C103.102857,22.88 103.042857,22.86 102.982857,22.86 C102.902857,22.86 102.802857,22.92 102.742857,23 C102.662857,23.1 102.602857,23.2 102.562857,23.28 L102.562857,23.28 Z M100.622857,26.84 C100.502857,26.76 100.362857,26.82 100.282857,27.02 L100.462857,27.18 L100.622857,26.84 Z M98.4828573,28.14 C98.6228573,28.22 98.6428573,28.46 98.3028573,28.82 L98.1828573,28.58 L98.4828573,28.14 Z M112.594286,31.1 C112.654286,30.22 111.894286,29.54 111.914286,29.3 C111.954286,28.74 112.114286,28.16 112.234286,27.72 C112.174286,27.68 112.154286,27.68 112.114286,27.64 C112.414286,27.46 112.454286,25.74 112.434286,25.64 C112.054286,25.06 112.474286,23.98 111.734286,23.34 C111.634286,23.26 111.134286,23.64 111.154286,23.3 L111.514286,23.18 C111.214286,22.94 110.654286,22.7 110.394286,22.62 C110.354286,23 109.794286,22.8 109.654286,22.92 C108.874286,23.54 107.934286,24.38 106.994286,25.62 C105.114286,28.14 101.774286,31.38 101.334286,34.4 L101.654286,34.4 C101.434286,34.92 102.294286,35.18 102.354286,35.8 L103.614286,36.34 C103.934286,35.92 104.234286,35.1 104.574286,34.4 L104.494286,34.16 L104.594286,33.9 C105.494286,33.28 108.514286,31.66 109.654286,31.7 C109.694286,32 109.594286,32.06 109.614286,32.3 L109.274286,31.88 C109.214286,32.12 109.154286,32.82 109.094286,33.1 C109.334286,33.2 109.334286,32.76 109.354286,32.44 L109.594286,32.54 C109.554286,33 109.334286,33.82 109.194286,33.82 C109.214286,33.52 109.214286,33.26 109.074286,33.26 C108.954286,33.86 108.714286,34.44 108.674286,34.9 C108.674286,35.04 108.754286,35.1 108.854286,35.1 C108.834286,35.24 108.754286,35.3 108.654286,35.3 L108.634286,35.58 C108.914286,35.58 108.974286,35.74 108.954286,36.14 C109.274286,36.02 109.834286,36.62 110.454286,36.62 C110.654286,36.02 110.814286,35.48 110.854286,34.8 C110.814286,34.84 110.614286,34.94 110.634286,34.86 C111.054286,34.3 110.974286,34.08 110.854286,33.78 C111.114286,33.54 111.274286,33.04 110.994286,32.88 C111.414286,32.48 111.354286,31.6 111.514286,31.26 C111.854286,31.22 112.234286,31.14 112.594286,31.1 L112.594286,31.1 Z M110.974286,25.38 C110.754286,26.28 110.474286,27.9 110.234286,28.52 L109.894286,28.22 C109.814286,28.5 109.614286,28.88 109.554286,29.4 C108.834286,29.6 108.414286,29.68 107.714286,29.98 C106.914286,30.32 106.614286,30.74 106.214286,30.98 C106.674286,30.32 107.214286,29.46 107.574286,29 C107.834286,28.68 108.114286,28.32 108.414286,27.92 C108.234286,27.54 108.374286,27.36 108.694286,27 C108.774286,27.08 108.714286,27.2 108.654286,27.36 L108.754286,27.46 C109.614286,26.32 110.534286,25.2 110.914286,25.18 L110.974286,25.38 Z M110.014286,29.14 L109.994286,29.36 C109.854286,29.38 109.714286,29.38 109.794286,29.14 L110.014286,29.14 Z M109.994286,29.02 L109.814286,29.02 L109.894286,28.8 L109.974286,28.82 L109.994286,29.02 Z M109.294286,33.9 L109.214286,34.22 L109.094286,34.22 L109.174286,33.96 L109.294286,33.9 Z M106.474286,32.42 L104.954286,33.22 C105.034286,33.08 105.074286,33 105.174286,32.86 C105.554286,32.66 106.214286,32.22 106.474286,32.42 L106.474286,32.42 Z M106.714286,32.3 C106.794286,31.98 106.974286,31.94 107.414286,31.92 L107.414286,31.94 C107.194286,32.08 106.894286,32.2 106.714286,32.3 L106.714286,32.3 Z M110.714286,25.74 L110.534286,25.82 L110.374286,26.36 L110.554286,26.36 L110.714286,25.74 Z M105.374286,32.5 L105.614286,32.16 C105.754286,32.1 105.874286,32.08 106.034286,32.02 C105.914286,32.3 105.454286,32.46 105.374286,32.5 L105.374286,32.5 Z M130.197143,22.36 C128.337143,22.36 129.217143,24.26 127.197143,24.68 C125.977143,24.92 124.117143,24.84 123.337143,24.76 C123.137143,24.96 123.057143,25.18 123.057143,25.42 C123.057143,26.02 123.417143,26.9 123.717143,27.36 C124.357143,27.52 124.417143,27.24 125.297143,27.24 L126.857143,27.24 C125.857143,29.52 124.717143,32.48 124.717143,32.98 C124.717143,33.12 124.797143,33.3 124.877143,33.4 C124.957143,34.18 124.917143,34.86 125.437143,35.04 L125.357143,35.26 C125.697143,35.34 126.177143,35.4 126.657143,35.36 C126.877143,34.46 127.217143,33.42 127.597143,32.38 C127.417143,32.34 127.317143,32.4 127.217143,32.58 L127.057143,32.48 C127.197143,32.14 127.337143,31.78 127.517143,31.4 C127.597143,31.56 127.477143,31.94 127.677143,31.94 C127.817143,31.94 127.917143,31.5 128.017143,31.24 C128.017143,31.08 127.997143,30.92 127.897143,30.66 C127.997143,30.34 128.017143,29.9 128.237143,29.86 C128.357143,29.84 128.157143,30.24 128.377143,30.26 C128.577143,30.28 128.877143,29.48 128.977143,29.06 L128.797143,28.96 C128.917143,28.86 129.157143,28.62 129.217143,28.44 C129.637143,27.18 129.857143,26.92 130.537143,26.84 C130.657143,26.68 130.797143,26.58 130.977143,26.6 L130.977143,26.82 L131.257143,26.82 C132.917143,26.1 134.677143,26.26 135.877143,26.02 C135.857143,25.98 135.837143,25.92 135.837143,25.86 C135.837143,25.78 135.897143,25.72 135.977143,25.72 C136.037143,25.72 136.137143,25.74 136.257143,25.8 L136.297143,25.92 C136.417143,25.88 136.517143,25.84 136.617143,25.78 C136.437143,25.48 136.257143,24.96 136.597143,24.66 C136.337143,23.94 135.637143,23.58 134.777143,23.36 C133.857143,23.48 132.377143,23.8 131.057143,24.08 L130.197143,22.36 Z M128.617143,29.42 L128.457143,29.78 L128.337143,29.64 L128.537143,29.28 L128.617143,29.42 Z M145.748572,31.1 C145.808572,30.22 145.048572,29.54 145.068572,29.3 C145.108572,28.74 145.268572,28.16 145.388572,27.72 C145.328572,27.68 145.308572,27.68 145.268572,27.64 C145.568572,27.46 145.608572,25.74 145.588572,25.64 C145.208572,25.06 145.628572,23.98 144.888572,23.34 C144.788572,23.26 144.288572,23.64 144.308572,23.3 L144.668572,23.18 C144.368572,22.94 143.808572,22.7 143.548572,22.62 C143.508572,23 142.948572,22.8 142.808572,22.92 C142.028572,23.54 141.088572,24.38 140.148572,25.62 C138.268572,28.14 134.928572,31.38 134.488572,34.4 L134.808572,34.4 C134.588572,34.92 135.448572,35.18 135.508572,35.8 L136.768572,36.34 C137.088572,35.92 137.388572,35.1 137.728572,34.4 L137.648572,34.16 L137.748572,33.9 C138.648572,33.28 141.668572,31.66 142.808572,31.7 C142.848572,32 142.748572,32.06 142.768572,32.3 L142.428572,31.88 C142.368572,32.12 142.308572,32.82 142.248572,33.1 C142.488572,33.2 142.488572,32.76 142.508572,32.44 L142.748572,32.54 C142.708572,33 142.488572,33.82 142.348572,33.82 C142.368572,33.52 142.368572,33.26 142.228572,33.26 C142.108572,33.86 141.868572,34.44 141.828572,34.9 C141.828572,35.04 141.908572,35.1 142.008572,35.1 C141.988572,35.24 141.908572,35.3 141.808572,35.3 L141.788572,35.58 C142.068572,35.58 142.128572,35.74 142.108572,36.14 C142.428572,36.02 142.988572,36.62 143.608572,36.62 C143.808572,36.02 143.968572,35.48 144.008572,34.8 C143.968572,34.84 143.768572,34.94 143.788572,34.86 C144.208572,34.3 144.128572,34.08 144.008572,33.78 C144.268572,33.54 144.428572,33.04 144.148572,32.88 C144.568572,32.48 144.508572,31.6 144.668572,31.26 C145.008572,31.22 145.388572,31.14 145.748572,31.1 L145.748572,31.1 Z M144.128572,25.38 C143.908572,26.28 143.628572,27.9 143.388572,28.52 L143.048572,28.22 C142.968572,28.5 142.768572,28.88 142.708572,29.4 C141.988572,29.6 141.568572,29.68 140.868572,29.98 C140.068572,30.32 139.768572,30.74 139.368572,30.98 C139.828572,30.32 140.368572,29.46 140.728572,29 C140.988572,28.68 141.268572,28.32 141.568572,27.92 C141.388572,27.54 141.528572,27.36 141.848572,27 C141.928572,27.08 141.868572,27.2 141.808572,27.36 L141.908572,27.46 C142.768572,26.32 143.688572,25.2 144.068572,25.18 L144.128572,25.38 Z M143.168572,29.14 L143.148572,29.36 C143.008572,29.38 142.868572,29.38 142.948572,29.14 L143.168572,29.14 Z M143.148572,29.02 L142.968572,29.02 L143.048572,28.8 L143.128572,28.82 L143.148572,29.02 Z M142.448572,33.9 L142.368572,34.22 L142.248572,34.22 L142.328572,33.96 L142.448572,33.9 Z M139.628572,32.42 L138.108572,33.22 C138.188572,33.08 138.228572,33 138.328572,32.86 C138.708572,32.66 139.368572,32.22 139.628572,32.42 L139.628572,32.42 Z M139.868572,32.3 C139.948572,31.98 140.128572,31.94 140.568572,31.92 L140.568572,31.94 C140.348572,32.08 140.048572,32.2 139.868572,32.3 L139.868572,32.3 Z M143.868572,25.74 L143.688572,25.82 L143.528572,26.36 L143.708572,26.36 L143.868572,25.74 Z M138.528572,32.5 L138.768572,32.16 C138.908572,32.1 139.028572,32.08 139.188572,32.02 C139.068572,32.3 138.608572,32.46 138.528572,32.5 L138.528572,32.5 Z M159.040001,25.82 C159.040001,24.68 158.400001,24.28 157.340001,24.12 C156.620001,24 156.000001,23.98 155.380001,23.96 C155.300001,23.52 155.100001,23.16 154.940001,22.76 C154.600001,22.72 154.340001,22.56 154.040001,22.46 C153.900001,22.42 153.800001,22.38 153.600001,22.38 C152.840001,22.38 153.040001,24.72 151.140001,24.6 L151.140001,24.92 C150.980001,25.02 150.740001,25.16 150.600001,25.36 L151.100001,25.48 C151.060001,25.72 150.940001,26 150.800001,26.18 C150.960001,26.38 151.260001,26.66 151.560001,26.88 C150.480001,29.2 148.980001,32.7 148.340001,34.68 C148.340001,35.08 148.440001,35.78 148.760001,36.26 C149.040001,36.66 150.140001,37.06 150.320001,37.06 C150.340001,36.8 150.440001,36.34 150.500001,36.14 L151.400001,33.52 C151.440001,33.4 151.120001,33.6 151.120001,33.48 C151.080001,32.9 151.540001,32.1 151.760001,31.7 C151.980001,31.32 151.920001,31.84 152.020001,31.84 C152.120001,31.84 152.580001,30.66 152.820001,30.26 C153.440001,30.66 154.920001,29.58 156.280001,28.78 L156.440001,28.92 C157.980001,27.84 159.040001,27.22 159.040001,25.82 L159.040001,25.82 Z M157.220001,27.7 C157.380001,27.92 156.660001,28.26 156.260001,28.5 C156.060001,28.64 155.900001,28.5 155.980001,28.44 L157.220001,27.7 Z M155.200001,29.06 C154.780001,29.3 154.220001,29.58 153.740001,29.72 C153.780001,29.44 154.000001,29.16 154.260001,29.16 L154.520001,29.16 C154.840001,29.16 154.960001,28.8 155.200001,29.06 L155.200001,29.06 Z M155.800001,28.74 L155.460001,28.94 C155.300001,29.04 155.280001,28.84 155.120001,28.84 C155.280001,28.6 155.700001,28.64 155.800001,28.74 L155.800001,28.74 Z M157.780001,27.46 C157.780001,27.68 157.280001,27.8 157.340001,27.64 C157.380001,27.52 157.480001,27.5 157.580001,27.44 C157.680001,27.38 157.780001,27.4 157.780001,27.46 L157.780001,27.46 Z M151.680001,32.46 C151.560001,32.5 151.340001,33 151.280001,33.28 C151.340001,33.34 151.460001,33.22 151.540001,33.22 C151.640001,32.96 151.960001,32.34 151.680001,32.46 L151.680001,32.46 Z M171.311429,25.18 C171.291429,25.06 171.171429,25.2 171.091429,25.24 C170.531429,25.5 170.031429,25.64 169.431429,25.88 C169.291429,25.28 169.851429,25.72 170.651429,25 C170.691429,24.96 170.651429,24.92 170.611429,24.92 C170.331429,24.88 169.851429,24.68 169.631429,24.68 C169.411429,24.68 169.231429,24.8 169.131429,24.8 L168.951429,24.42 C168.511429,24.42 167.551429,24.32 167.211429,24.24 C167.491429,23.7 167.591429,23.24 167.571429,22.8 C167.311429,22.72 166.251429,22.42 165.871429,22.42 C165.171429,22.42 164.591429,23.96 163.591429,23.84 C163.231429,24.38 163.211429,24.86 163.311429,25.36 C161.851429,28.42 160.631429,30.24 160.591429,31.72 C160.511429,34.64 162.171429,35.7 164.511429,35.7 C165.731429,35.7 167.411429,35.1 168.711429,34.6 C168.991429,34.5 169.151429,34.36 169.271429,34.16 C169.371429,33.96 169.231429,34.02 169.171429,34.04 C168.191429,34.38 167.091429,34.76 166.291429,34.98 C165.911429,35.08 165.471429,35.08 165.171429,34.94 C166.291429,34.66 167.531429,34.32 168.531429,33.98 C168.591429,33.96 168.631429,33.92 168.571429,33.9 C168.431429,33.82 168.211429,33.68 168.091429,33.6 L169.451429,33.1 C169.611429,33.02 169.911429,32.88 169.871429,32.78 C169.851429,32.72 169.771429,32.74 169.711429,32.76 C168.711429,33.08 167.171429,33.6 165.871429,33.96 C165.591429,34.04 165.491429,33.56 165.191429,33.6 C165.191429,33.72 165.011429,33.84 164.871429,33.84 L164.751429,33.64 C164.171429,33.78 163.231429,33.98 162.611429,33.52 C162.631429,33.06 163.091429,30.86 163.611429,30.64 C164.611429,30.2 167.591429,29.72 168.811429,29.52 L168.951429,29.08 C168.751429,28.98 168.651429,28.78 168.731429,28.56 C168.311429,27.84 168.131429,27.64 167.551429,27.64 C166.971429,27.64 165.311429,28.32 164.511429,28.4 C164.851429,27.86 165.131429,27.4 165.351429,27.04 C167.111429,26.54 168.971429,26.48 170.791429,25.66 C170.991429,25.5 171.351429,25.38 171.311429,25.18 L171.311429,25.18 Z M169.651429,25.12 L169.291429,25.28 L169.231429,25.04 C169.351429,25 169.631429,25.02 169.651429,25.12 L169.651429,25.12 Z M162.691429,31.14 C162.731429,30.94 162.811429,30.82 163.071429,30.84 C162.991429,31.04 162.831429,31.2 162.711429,31.36 L162.691429,31.36 L162.691429,31.14 Z M162.491429,32.84 L162.391429,33.38 C162.231429,33.26 162.251429,33 162.331429,32.64 L162.491429,32.84 Z M168.491429,32.72 C168.531429,32.66 168.511429,32.6 168.431429,32.64 C167.691429,32.94 166.771429,33.24 165.851429,33.44 C166.091429,33.82 166.791429,33.54 167.351429,33.12 C167.731429,33.14 168.251429,33 168.491429,32.72 L168.491429,32.72 Z M165.011429,27.06 L164.671429,27.62 L164.411429,27.68 L164.751429,27.12 L165.011429,27.06 Z M164.291429,27.96 L164.091429,28.42 L163.831429,28.46 C163.891429,28.24 164.151429,27.96 164.291429,27.96 L164.291429,27.96 Z M162.851429,31.48 L162.571429,32.42 L162.431429,32.24 L162.651429,31.5 L162.851429,31.48 Z" id="ALVA-TAPE" sketch:type="MSShapeGroup"></path>
            </g>
        </g>
    </g>
</svg>