<?xml version="1.0" encoding="UTF-8" standalone="no"?>
<svg width="20px" height="17px" viewBox="0 0 20 17" version="1.1" xmlns="http://www.w3.org/2000/svg" xmlns:xlink="http://www.w3.org/1999/xlink" xmlns:sketch="http://www.bohemiancoding.com/sketch/ns">
    <!-- Generator: Sketch 3.3.2 (12043) - http://www.bohemiancoding.com/sketch -->
    <title>1443179814_03-twitter</title>
    <desc>Created with Sketch.</desc>
    <defs></defs>
    <g id="Page-1" stroke="none" stroke-width="1" fill="none" fill-rule="evenodd" sketch:type="MSPage">
        <g id="Speed-Dial" sketch:type="MSArtboardGroup" transform="translate(-300.000000, -221.000000)" fill="#FFFFFF">
            <g id="Play-Copy" sketch:type="MSLayerGroup" transform="translate(290.000000, 210.000000)">
                <g id="1443179814_03-twitter" transform="translate(9.804878, 11.000000)" sketch:type="MSShapeGroup">
                    <path d="M20.28,2.08298355 C19.5447626,2.40980084 18.7534994,2.63025026 17.9232617,2.72890442 C18.7709567,2.22142416 19.4209374,1.41757543 19.7274555,0.458640735 C18.9345683,0.929176431 18.0568305,1.27060915 17.1218489,1.45492598 C16.37362,0.657572997 15.3070994,0.15902439 14.1269034,0.15902439 C11.8611055,0.15902439 10.024027,1.99610293 10.024027,4.26230677 C10.024027,4.58344028 10.0601596,4.8964541 10.1303948,5.1972884 C6.72012748,5.02596307 3.6963571,3.3926886 1.67252583,0.910095174 C1.31931957,1.51582361 1.11713944,2.22061219 1.11713944,2.97330691 C1.11713944,4.39668755 1.84141526,5.65280268 2.94244443,6.38844607 C2.27013458,6.3669289 1.6372052,6.18220609 1.08384873,5.87487604 C1.08344275,5.89192738 1.08344275,5.9093847 1.08344275,5.92684202 C1.08344275,7.9145407 2.49789172,9.5725802 4.3751627,9.95014552 C4.03088809,10.0435219 3.66834419,10.0938639 3.29402675,10.0938639 C3.02932505,10.0938639 2.77233705,10.0682869 2.52184479,10.0199748 C3.04434647,11.6500014 4.55947953,12.8366932 6.35474169,12.8695779 C4.95044232,13.9702011 3.18156913,14.6262716 1.25882792,14.6262716 C0.927950795,14.6262716 0.601133508,14.6067844 0.28,14.5686219 C2.09637334,15.7333905 4.25296145,16.4121961 6.56991332,16.4121961 C14.1175657,16.4121961 18.2443952,10.1600394 18.2443952,4.73771428 C18.2443952,4.5598932 18.2407413,4.3824781 18.2330276,4.20628095 C19.0344405,3.62897141 19.7302974,2.90591354 20.28,2.08298355 L20.28,2.08298355 Z" id="Shape"></path>
                </g>
            </g>
        </g>
    </g>
</svg>