<?xml version="1.0" encoding="UTF-8" standalone="no"?>
<svg width="360px" height="640px" viewBox="0 0 360 640" version="1.1" xmlns="http://www.w3.org/2000/svg" xmlns:xlink="http://www.w3.org/1999/xlink" xmlns:sketch="http://www.bohemiancoding.com/sketch/ns">
    <!-- Generator: Sketch 3.3.2 (12043) - http://www.bohemiancoding.com/sketch -->
    <title>Album view</title>
    <desc>Created with Sketch.</desc>
    <defs></defs>
    <g id="Page-1" stroke="none" stroke-width="1" fill="none" fill-rule="evenodd" sketch:type="MSPage">
        <g id="Album-view" sketch:type="MSArtboardGroup">
            <g id="Nav" sketch:type="MSLayerGroup">
                <rect id="Rectangle-1" fill="#D8D8D8" sketch:type="MSShapeGroup" x="0" y="0" width="360" height="60"></rect>
                <g id="menu" transform="translate(29.000000, 26.000000) scale(1, -1) translate(-29.000000, -26.000000) translate(17.000000, 14.000000)" sketch:type="MSShapeGroup">
                    <path d="M24,0 L0,0 L0,24 L24,24 L24,0 Z" id="bounds"></path>
                    <path d="M3,6 L21,6 L21,8 L3,8 L3,6 L3,6 Z M3,11 L21,11 L21,13 L3,13 L3,11 L3,11 Z M3,18 L3,16 L21,16 L21,18 L3,18 L3,18 Z" id="Shape" opacity="0.539999962" fill="#000000"></path>
                </g>
            </g>
            <text id="ALVA-TAPE" sketch:type="MSTextLayer" font-family="Proxima Nova" font-size="14" font-weight="normal" fill="#000000">
                <tspan x="51" y="30">ALVA TAPE</tspan>
            </text>
            <g id="Body" sketch:type="MSLayerGroup" transform="translate(0.000000, 296.000000)">
                <rect id="Rectangle-3" opacity="0.4" fill="#CBCBCB" sketch:type="MSShapeGroup" x="0" y="0" width="360" height="344"></rect>
                <text id="Stream" sketch:type="MSTextLayer" font-family="Proxima Nova" font-size="20" font-weight="normal" fill="#000000">
                    <tspan x="20" y="44">Stream</tspan>
                </text>
                <g id="Oval-+-Line-+-Apple-Music" transform="translate(19.500000, 63.000000)">
                    <circle id="Oval" fill-opacity="0.26" fill="#000000" sketch:type="MSShapeGroup" cx="20" cy="31" r="20"></circle>
                    <path d="M0.5,1 L321.506226,1" id="Line" stroke="#979797" stroke-linecap="square" sketch:type="MSShapeGroup"></path>
                    <text id="Apple-Music" sketch:type="MSTextLayer" font-family="Proxima Nova" font-size="14" font-weight="normal" fill="#000000">
                        <tspan x="60" y="32">Apple Music</tspan>
                    </text>
                </g>
                <g id="Oval-+-Line-+-Apple-Music-Copy" transform="translate(18.500000, 123.000000)">
                    <circle id="Oval" fill-opacity="0.26" fill="#000000" sketch:type="MSShapeGroup" cx="21" cy="31" r="20"></circle>
                    <path d="M0.496887207,1 L321.503113,1" id="Line" stroke="#979797" stroke-linecap="square" sketch:type="MSShapeGroup"></path>
                    <text id="Spotify" sketch:type="MSTextLayer" font-family="Proxima Nova" font-size="14" font-weight="normal" fill="#000000">
                        <tspan x="60" y="31">Spotify</tspan>
                    </text>
                </g>
                <g id="Oval-+-Line-+-Apple-Music-Copy-2" transform="translate(19.500000, 183.000000)">
                    <circle id="Oval" fill-opacity="0.26" fill="#000000" sketch:type="MSShapeGroup" cx="21" cy="31" r="20"></circle>
                    <path d="M0.496887207,1 L321.503113,1" id="Line" stroke="#979797" stroke-linecap="square" sketch:type="MSShapeGroup"></path>
                    <text id="Google-Play-Music" sketch:type="MSTextLayer" font-family="Proxima Nova" font-size="14" font-weight="normal" fill="#000000">
                        <tspan x="60" y="31">Google Play Music</tspan>
                    </text>
                </g>
                <g id="Oval-+-Line-+-Apple-Music-Copy-3" transform="translate(19.000000, 243.000000)">
                    <circle id="Oval" fill-opacity="0.26" fill="#000000" sketch:type="MSShapeGroup" cx="21" cy="31" r="20"></circle>
                    <path d="M0.496887207,1 L321.503113,1" id="Line" stroke="#979797" stroke-linecap="square" sketch:type="MSShapeGroup"></path>
                    <text id="Bandcamp" sketch:type="MSTextLayer" font-family="Proxima Nova" font-size="14" font-weight="normal" fill="#000000">
                        <tspan x="60" y="31">Bandcamp</tspan>
                    </text>
                </g>
                <g id="Oval-+-Line-+-Apple-Music-Copy-4" transform="translate(20.000000, 303.000000)">
                    <circle id="Oval" fill-opacity="0.26" fill="#000000" sketch:type="MSShapeGroup" cx="21" cy="31" r="20"></circle>
                    <path d="M0.496887207,1 L321.503113,1" id="Line" stroke="#979797" stroke-linecap="square" sketch:type="MSShapeGroup"></path>
                    <text id="Amazon-Music" sketch:type="MSTextLayer" font-family="Proxima Nova" font-size="14" font-weight="normal" fill="#000000">
                        <tspan x="60" y="31">Amazon Music</tspan>
                    </text>
                </g>
            </g>
            <g id="Album" sketch:type="MSLayerGroup" transform="translate(0.000000, 60.000000)">
                <rect id="Rectangle-2" fill="#747474" sketch:type="MSShapeGroup" x="0" y="0" width="360" height="237"></rect>
                <text id="By-TokiMonsta" sketch:type="MSTextLayer" font-family="Proxima Nova" font-size="12" font-weight="normal" fill="#000000">
                    <tspan x="19" y="220">By TokiMonsta</tspan>
                </text>
                <text id="HALF-SHADOWS" sketch:type="MSTextLayer" font-family="Proxima Nova" font-size="24" font-weight="normal" fill="#000000">
                    <tspan x="18" y="200">HALF SHADOWS</tspan>
                </text>
            </g>
            <g id="Play" sketch:type="MSLayerGroup" transform="translate(280.000000, 260.000000)">
                <g id="Oval-4" stroke="#979797" fill="#D8D8D8" sketch:type="MSShapeGroup">
                    <circle cx="30" cy="30" r="30"></circle>
                </g>
                <g id="1443178864_network" transform="translate(14.000000, 16.000000)" fill="#4D4D4D" sketch:type="MSShapeGroup">
                    <g id="layer1">
                        <g id="g7233" transform="translate(0.043945, 0.060914)">
                            <path d="M16.1642633,0.876862991 C10.3163426,0.876862991 5.30111682,4.66595082 3.32804424,9.97497587 C3.58572346,9.92835249 3.84984057,9.90412404 4.11703309,9.90541864 C4.6975846,9.88680796 5.28347269,9.97793413 5.82865393,10.1690261 C6.21944907,10.2897056 6.58455712,10.4647468 6.92152362,10.6815962 C8.50756186,7.06974043 12.0397144,4.56919517 16.1642633,4.56919517 C16.4444194,4.56919517 16.7211135,4.58134454 16.995359,4.60397964 C16.9065174,3.3116997 17.3872027,2.0281188 18.21271,1.03428937 C17.5438559,0.930715067 16.860474,0.876862991 16.1642633,0.876862991 L16.1642633,0.876862991 Z M26.8110758,6.09226052 C26.3706229,7.26728786 25.494667,8.28275068 24.3983353,8.89308983 C25.5940353,10.6016001 26.2966722,12.7023114 26.2966722,14.9780288 C26.2966722,17.2045102 25.624069,19.2617262 24.4752208,20.9494701 C25.6115389,21.5188622 26.4633659,22.5561166 26.9007785,23.7484659 C28.7729246,21.3381447 29.8938187,18.2884055 29.8938187,14.9780288 C29.8938187,11.6152762 28.7369041,8.52036059 26.8110758,6.09226052 L26.8110758,6.09226052 Z M6.96545819,19.3678253 C6.2385694,19.8508538 5.39336771,20.1533638 4.51244429,20.1970875 C4.13253321,20.230759 3.75601974,20.2129626 3.39028489,20.1494976 C5.40625519,25.3691949 10.3786945,29.0773669 16.1642633,29.0773669 C16.9179229,29.0773669 17.6562229,29.0116291 18.3774705,28.890645 C17.6813242,28.0664557 17.2268767,27.0365004 17.1582801,25.9561842 C17.1354693,25.7495511 17.1284925,25.5427189 17.1344852,25.3374331 C16.8151921,25.3682459 16.4917223,25.3832012 16.1642633,25.3832012 C12.0763149,25.3832012 8.57152475,22.9275512 6.96545819,19.3678253 L6.96545819,19.3678253 Z" id="path7075"></path>
                            <path d="M21.9745525,0.00240761484 C20.5515174,0.0351535199 19.1789661,0.807857293 18.4152601,2.16617384 C17.2515269,4.23599621 17.9413349,6.88183605 19.9569772,8.0768507 C21.9726194,9.27185948 24.5509699,8.56351694 25.7146973,6.49369456 C26.8784363,4.42387218 26.1868768,1.77803235 24.1712287,0.583023558 C23.4783511,0.172241117 22.7199466,-0.0147385862 21.9745525,0.00240761484 L21.9745525,0.00240761484 Z M4.23254003,10.7238504 C1.90507357,10.7238504 0.0182885001,12.6613477 0.0182885001,15.051377 C0.0182885001,17.4413946 1.90507357,19.3788977 4.23254003,19.3788977 C6.56000648,19.3788977 8.44679741,17.4413946 8.44679741,15.051377 C8.44679741,12.6613477 6.56000648,10.7238504 4.23254003,10.7238504 L4.23254003,10.7238504 Z M22.0763929,21.2216955 C21.3970706,21.2398141 20.7132963,21.4270633 20.0834033,21.8005072 C18.067761,22.995516 17.3762015,25.6431601 18.5399347,27.7129766 C19.703668,29.7828048 22.2820126,30.4911474 24.2976607,29.2961386 C26.3133029,28.1011239 27.003111,25.4552841 25.8393719,23.3854558 C25.0393056,21.9624559 23.5709008,21.1818439 22.0763929,21.2216955 L22.0763929,21.2216955 Z" id="path7073"></path>
                        </g>
                    </g>
                </g>
            </g>
        </g>
    </g>
</svg>