<?xml version="1.0" encoding="UTF-8" standalone="no"?>
<svg width="360px" height="640px" viewBox="0 0 360 640" version="1.1" xmlns="http://www.w3.org/2000/svg" xmlns:xlink="http://www.w3.org/1999/xlink" xmlns:sketch="http://www.bohemiancoding.com/sketch/ns">
    <!-- Generator: Sketch 3.3.2 (12043) - http://www.bohemiancoding.com/sketch -->
    <title>Speed Dial</title>
    <desc>Created with Sketch.</desc>
    <defs></defs>
    <g id="Page-1" stroke="none" stroke-width="1" fill="none" fill-rule="evenodd" sketch:type="MSPage">
        <g id="Speed-Dial" sketch:type="MSArtboardGroup">
            <g id="Nav" sketch:type="MSLayerGroup">
                <rect id="Rectangle-1" fill="#D8D8D8" sketch:type="MSShapeGroup" x="0" y="0" width="360" height="60"></rect>
                <g id="menu" transform="translate(29.000000, 26.000000) scale(1, -1) translate(-29.000000, -26.000000) translate(17.000000, 14.000000)" sketch:type="MSShapeGroup">
                    <path d="M24,0 L0,0 L0,24 L24,24 L24,0 Z" id="bounds"></path>
                    <path d="M3,6 L21,6 L21,8 L3,8 L3,6 L3,6 Z M3,11 L21,11 L21,13 L3,13 L3,11 L3,11 Z M3,18 L3,16 L21,16 L21,18 L3,18 L3,18 Z" id="Shape" opacity="0.539999962" fill="#000000"></path>
                </g>
            </g>
            <text id="ALVA-TAPE" sketch:type="MSTextLayer" font-family="Proxima Nova" font-size="14" font-weight="normal" fill="#000000">
                <tspan x="51" y="30">ALVA TAPE</tspan>
            </text>
            <g id="Body" sketch:type="MSLayerGroup" transform="translate(0.000000, 296.000000)">
                <rect id="Rectangle-3" opacity="0.4" fill="#CBCBCB" sketch:type="MSShapeGroup" x="0" y="0" width="360" height="344"></rect>
                <text id="Stream" sketch:type="MSTextLayer" font-family="Proxima Nova" font-size="20" font-weight="normal" fill="#000000">
                    <tspan x="20" y="44">Stream</tspan>
                </text>
                <g id="Oval-+-Line-+-Apple-Music" transform="translate(19.500000, 63.000000)">
                    <circle id="Oval" fill-opacity="0.26" fill="#000000" sketch:type="MSShapeGroup" cx="20" cy="31" r="20"></circle>
                    <path d="M0.5,1 L321.506226,1" id="Line" stroke="#979797" stroke-linecap="square" sketch:type="MSShapeGroup"></path>
                    <text id="Apple-Music" sketch:type="MSTextLayer" font-family="Proxima Nova" font-size="14" font-weight="normal" fill="#000000">
                        <tspan x="60" y="32">Apple Music</tspan>
                    </text>
                </g>
                <g id="Oval-+-Line-+-Apple-Music-Copy" transform="translate(18.500000, 123.000000)">
                    <circle id="Oval" fill-opacity="0.26" fill="#000000" sketch:type="MSShapeGroup" cx="21" cy="31" r="20"></circle>
                    <path d="M0.496887207,1 L321.503113,1" id="Line" stroke="#979797" stroke-linecap="square" sketch:type="MSShapeGroup"></path>
                    <text id="Spotify" sketch:type="MSTextLayer" font-family="Proxima Nova" font-size="14" font-weight="normal" fill="#000000">
                        <tspan x="60" y="31">Spotify</tspan>
                    </text>
                </g>
                <g id="Oval-+-Line-+-Apple-Music-Copy-2" transform="translate(19.500000, 183.000000)">
                    <circle id="Oval" fill-opacity="0.26" fill="#000000" sketch:type="MSShapeGroup" cx="21" cy="31" r="20"></circle>
                    <path d="M0.496887207,1 L321.503113,1" id="Line" stroke="#979797" stroke-linecap="square" sketch:type="MSShapeGroup"></path>
                    <text id="Google-Play-Music" sketch:type="MSTextLayer" font-family="Proxima Nova" font-size="14" font-weight="normal" fill="#000000">
                        <tspan x="60" y="31">Google Play Music</tspan>
                    </text>
                </g>
                <g id="Oval-+-Line-+-Apple-Music-Copy-3" transform="translate(19.000000, 243.000000)">
                    <circle id="Oval" fill-opacity="0.26" fill="#000000" sketch:type="MSShapeGroup" cx="21" cy="31" r="20"></circle>
                    <path d="M0.496887207,1 L321.503113,1" id="Line" stroke="#979797" stroke-linecap="square" sketch:type="MSShapeGroup"></path>
                    <text id="Bandcamp" sketch:type="MSTextLayer" font-family="Proxima Nova" font-size="14" font-weight="normal" fill="#000000">
                        <tspan x="60" y="31">Bandcamp</tspan>
                    </text>
                </g>
                <g id="Oval-+-Line-+-Apple-Music-Copy-4" transform="translate(20.000000, 303.000000)">
                    <circle id="Oval" fill-opacity="0.26" fill="#000000" sketch:type="MSShapeGroup" cx="21" cy="31" r="20"></circle>
                    <path d="M0.496887207,1 L321.503113,1" id="Line" stroke="#979797" stroke-linecap="square" sketch:type="MSShapeGroup"></path>
                    <text id="Amazon-Music" sketch:type="MSTextLayer" font-family="Proxima Nova" font-size="14" font-weight="normal" fill="#000000">
                        <tspan x="60" y="31">Amazon Music</tspan>
                    </text>
                </g>
            </g>
            <g id="Album" sketch:type="MSLayerGroup" transform="translate(0.000000, 60.000000)">
                <rect id="Rectangle-2" fill="#747474" sketch:type="MSShapeGroup" x="0" y="0" width="360" height="237"></rect>
                <text id="By-TokiMonsta" sketch:type="MSTextLayer" font-family="Proxima Nova" font-size="12" font-weight="normal" fill="#000000">
                    <tspan x="19" y="220">By TokiMonsta</tspan>
                </text>
                <text id="HALF-SHADOWS" sketch:type="MSTextLayer" font-family="Proxima Nova" font-size="24" font-weight="normal" fill="#000000">
                    <tspan x="18" y="200">HALF SHADOWS</tspan>
                </text>
            </g>
            <g id="Play" sketch:type="MSLayerGroup" transform="translate(280.000000, 260.000000)">
                <g id="Oval-4" stroke="#979797" fill="#D8D8D8" sketch:type="MSShapeGroup">
                    <circle cx="30" cy="30" r="30"></circle>
                </g>
                <g id="1443178864_network" transform="translate(14.000000, 16.000000)" fill="#4D4D4D" sketch:type="MSShapeGroup">
                    <g id="layer1">
                        <g id="g7233" transform="translate(0.043945, 0.060914)">
                            <path d="M16.1642633,0.876862991 C10.3163426,0.876862991 5.30111682,4.66595082 3.32804424,9.97497587 C3.58572346,9.92835249 3.84984057,9.90412404 4.11703309,9.90541864 C4.6975846,9.88680796 5.28347269,9.97793413 5.82865393,10.1690261 C6.21944907,10.2897056 6.58455712,10.4647468 6.92152362,10.6815962 C8.50756186,7.06974043 12.0397144,4.56919517 16.1642633,4.56919517 C16.4444194,4.56919517 16.7211135,4.58134454 16.995359,4.60397964 C16.9065174,3.3116997 17.3872027,2.0281188 18.21271,1.03428937 C17.5438559,0.930715067 16.860474,0.876862991 16.1642633,0.876862991 L16.1642633,0.876862991 Z M26.8110758,6.09226052 C26.3706229,7.26728786 25.494667,8.28275068 24.3983353,8.89308983 C25.5940353,10.6016001 26.2966722,12.7023114 26.2966722,14.9780288 C26.2966722,17.2045102 25.624069,19.2617262 24.4752208,20.9494701 C25.6115389,21.5188622 26.4633659,22.5561166 26.9007785,23.7484659 C28.7729246,21.3381447 29.8938187,18.2884055 29.8938187,14.9780288 C29.8938187,11.6152762 28.7369041,8.52036059 26.8110758,6.09226052 L26.8110758,6.09226052 Z M6.96545819,19.3678253 C6.2385694,19.8508538 5.39336771,20.1533638 4.51244429,20.1970875 C4.13253321,20.230759 3.75601974,20.2129626 3.39028489,20.1494976 C5.40625519,25.3691949 10.3786945,29.0773669 16.1642633,29.0773669 C16.9179229,29.0773669 17.6562229,29.0116291 18.3774705,28.890645 C17.6813242,28.0664557 17.2268767,27.0365004 17.1582801,25.9561842 C17.1354693,25.7495511 17.1284925,25.5427189 17.1344852,25.3374331 C16.8151921,25.3682459 16.4917223,25.3832012 16.1642633,25.3832012 C12.0763149,25.3832012 8.57152475,22.9275512 6.96545819,19.3678253 L6.96545819,19.3678253 Z" id="path7075"></path>
                            <path d="M21.9745525,0.00240761484 C20.5515174,0.0351535199 19.1789661,0.807857293 18.4152601,2.16617384 C17.2515269,4.23599621 17.9413349,6.88183605 19.9569772,8.0768507 C21.9726194,9.27185948 24.5509699,8.56351694 25.7146973,6.49369456 C26.8784363,4.42387218 26.1868768,1.77803235 24.1712287,0.583023558 C23.4783511,0.172241117 22.7199466,-0.0147385862 21.9745525,0.00240761484 L21.9745525,0.00240761484 Z M4.23254003,10.7238504 C1.90507357,10.7238504 0.0182885001,12.6613477 0.0182885001,15.051377 C0.0182885001,17.4413946 1.90507357,19.3788977 4.23254003,19.3788977 C6.56000648,19.3788977 8.44679741,17.4413946 8.44679741,15.051377 C8.44679741,12.6613477 6.56000648,10.7238504 4.23254003,10.7238504 L4.23254003,10.7238504 Z M22.0763929,21.2216955 C21.3970706,21.2398141 20.7132963,21.4270633 20.0834033,21.8005072 C18.067761,22.995516 17.3762015,25.6431601 18.5399347,27.7129766 C19.703668,29.7828048 22.2820126,30.4911474 24.2976607,29.2961386 C26.3133029,28.1011239 27.003111,25.4552841 25.8393719,23.3854558 C25.0393056,21.9624559 23.5709008,21.1818439 22.0763929,21.2216955 L22.0763929,21.2216955 Z" id="path7073"></path>
                        </g>
                    </g>
                </g>
            </g>
            <g id="Play-Copy" sketch:type="MSLayerGroup" transform="translate(290.000000, 210.000000)">
                <g id="Oval-4" stroke="#979797" fill="#D8D8D8" sketch:type="MSShapeGroup">
                    <circle cx="20" cy="20" r="20"></circle>
                </g>
                <g id="1443179814_03-twitter" transform="translate(9.804878, 11.000000)" fill="#4D4D4D" sketch:type="MSShapeGroup">
                    <path d="M20.28,2.08298355 C19.5447626,2.40980084 18.7534994,2.63025026 17.9232617,2.72890442 C18.7709567,2.22142416 19.4209374,1.41757543 19.7274555,0.458640735 C18.9345683,0.929176431 18.0568305,1.27060915 17.1218489,1.45492598 C16.37362,0.657572997 15.3070994,0.15902439 14.1269034,0.15902439 C11.8611055,0.15902439 10.024027,1.99610293 10.024027,4.26230677 C10.024027,4.58344028 10.0601596,4.8964541 10.1303948,5.1972884 C6.72012748,5.02596307 3.6963571,3.3926886 1.67252583,0.910095174 C1.31931957,1.51582361 1.11713944,2.22061219 1.11713944,2.97330691 C1.11713944,4.39668755 1.84141526,5.65280268 2.94244443,6.38844607 C2.27013458,6.3669289 1.6372052,6.18220609 1.08384873,5.87487604 C1.08344275,5.89192738 1.08344275,5.9093847 1.08344275,5.92684202 C1.08344275,7.9145407 2.49789172,9.5725802 4.3751627,9.95014552 C4.03088809,10.0435219 3.66834419,10.0938639 3.29402675,10.0938639 C3.02932505,10.0938639 2.77233705,10.0682869 2.52184479,10.0199748 C3.04434647,11.6500014 4.55947953,12.8366932 6.35474169,12.8695779 C4.95044232,13.9702011 3.18156913,14.6262716 1.25882792,14.6262716 C0.927950795,14.6262716 0.601133508,14.6067844 0.28,14.5686219 C2.09637334,15.7333905 4.25296145,16.4121961 6.56991332,16.4121961 C14.1175657,16.4121961 18.2443952,10.1600394 18.2443952,4.73771428 C18.2443952,4.5598932 18.2407413,4.3824781 18.2330276,4.20628095 C19.0344405,3.62897141 19.7302974,2.90591354 20.28,2.08298355 L20.28,2.08298355 Z" id="Shape"></path>
                </g>
            </g>
            <g id="Play-Copy-2" sketch:type="MSLayerGroup" transform="translate(290.000000, 160.000000)">
                <g id="Oval-4" stroke="#979797" fill="#D8D8D8" sketch:type="MSShapeGroup">
                    <circle cx="20" cy="20" r="20"></circle>
                </g>
                <g id="1443179908_38-instagram" transform="translate(10.000000, 9.800000)" fill="#4D4D4D" sketch:type="MSShapeGroup">
                    <path d="M16.1656,0.3324 L4,0.3324 C1.8868,0.3324 0.1676,2.0512 0.1676,4.1644 L0.1676,8.2124 L0.1676,16.3304 C0.1676,18.4436 1.8868,20.1624 4,20.1624 L16.166,20.1624 C18.2792,20.1624 19.998,18.4436 19.998,16.3304 L19.998,8.212 L19.998,4.164 C19.9976,2.0508 18.2788,0.3324 16.1656,0.3324 L16.1656,0.3324 Z M17.2648,2.6176 L17.7032,2.616 L17.7032,3.0524 L17.7032,5.9772 L14.3532,5.988 L14.3416,2.6272 L17.2648,2.6176 L17.2648,2.6176 Z M7.2524,8.212 C7.8876,7.3332 8.918,6.7568 10.0828,6.7568 C11.2476,6.7568 12.278,7.3332 12.9124,8.212 C13.3256,8.7856 13.5732,9.4872 13.5732,10.2472 C13.5732,12.1716 12.006,13.7372 10.0824,13.7372 C8.1576,13.7372 6.592,12.1716 6.592,10.2472 C6.5924,9.4872 6.8392,8.7856 7.2524,8.212 L7.2524,8.212 Z M18.0656,16.33 C18.0656,17.3784 17.2132,18.23 16.1656,18.23 L4,18.23 C2.952,18.23 2.0996,17.3784 2.0996,16.33 L2.0996,8.212 L5.0596,8.212 C4.804,8.8408 4.6604,9.5276 4.6604,10.2472 C4.6604,13.2364 7.0924,15.67 10.0828,15.67 C13.0728,15.67 15.5048,13.2364 15.5048,10.2472 C15.5048,9.5276 15.3604,8.8408 15.1048,8.212 L18.0656,8.212 L18.0656,16.33 L18.0656,16.33 Z" id="Shape"></path>
                </g>
            </g>
            <g id="Play-Copy-3" sketch:type="MSLayerGroup" transform="translate(290.000000, 110.000000)">
                <g id="Oval-4" stroke="#979797" fill="#D8D8D8" sketch:type="MSShapeGroup">
                    <circle cx="20" cy="20" r="20"></circle>
                </g>
                <g id="1443179982_snapchat" transform="translate(10.000000, 11.000000)" fill="#4D4D4D" sketch:type="MSShapeGroup">
                    <g id="g4127">
                        <path d="M10.1171654,0.646451687 C8.90656833,0.654738249 7.65473977,0.975997867 6.67316847,1.75205322 C5.93809883,2.33223553 5.36013874,3.10113335 4.99580892,3.96012448 C4.99526264,3.96220414 4.99474142,3.96429382 4.99424526,3.96638851 C4.6472545,4.8514741 4.67938818,5.79343508 4.72643123,6.66618603 C4.72645579,6.66671722 4.72640667,6.66722336 4.72643123,6.66774954 C4.75502112,7.28117911 4.82261625,7.87504487 4.76558533,8.43890441 C4.76097955,8.46085457 4.76077407,8.46635389 4.75775451,8.47962061 C4.48485809,8.5290819 4.1878212,8.51114222 3.89323203,8.45456448 C3.89166837,8.45454995 3.8900997,8.45454995 3.88853604,8.45456448 C3.68674447,8.41983369 3.47116113,8.33668594 3.22761487,8.26820955 C3.22346516,8.26705697 3.21928789,8.26601463 3.21508556,8.26507753 C2.97871609,8.2110445 2.74636803,8.27986115 2.56825986,8.41228227 C2.56596951,8.41376559 2.56275448,8.4154644 2.56042904,8.41697779 C2.55687072,8.41968385 2.55297912,8.42205115 2.5494659,8.42480783 C2.40449425,8.52080286 2.20591328,8.6819824 2.19551295,8.96194852 C2.1950619,8.98031716 2.19664059,8.99873442 2.20020894,9.01675879 C2.23151417,9.18127681 2.33272244,9.30156826 2.42260411,9.38007261 C2.51248538,9.45857696 2.59740204,9.5104241 2.64969788,9.55076747 C2.65377742,9.55402978 2.6579542,9.55716279 2.66222719,9.56016351 C3.10310609,9.85758674 3.59104058,9.98827197 4.01539281,10.1536805 C4.01584387,10.1538308 4.01652045,10.1535302 4.01695647,10.1536805 C4.31074627,10.2838375 4.566037,10.4862299 4.62462807,10.7409334 C4.69778772,11.0630114 4.56214189,11.4327621 4.38500499,11.7917247 C4.38480452,11.7921757 4.38520546,11.7928572 4.38500499,11.7932882 C3.90722025,12.7447018 3.19768285,13.5720772 2.32549954,14.1783181 C1.86824283,14.4937803 1.3523968,14.7292773 0.814148611,14.8751991 C0.806723791,14.8774692 0.799404518,14.8800801 0.792222316,14.8830292 C0.681776938,14.9246153 0.419889273,14.9518067 0.255028094,15.2024948 C0.243311032,15.2200025 0.233814366,15.238994 0.226837143,15.2588711 C0.171245591,15.4200722 0.234665457,15.5931488 0.312976158,15.6879572 C0.3877561,15.778491 0.471179763,15.831171 0.543202254,15.8696141 C0.546885871,15.8717689 0.550474266,15.8737434 0.554165401,15.8758782 C1.00736362,16.1377688 1.50231327,16.2512976 1.95431619,16.3676046 C1.95639606,16.3681508 1.95848595,16.368672 1.96058085,16.3691681 C2.28624772,16.4433227 2.58648199,16.4829375 2.83136788,16.5884092 C2.84335743,16.6085714 2.8678793,16.6915563 2.92533772,16.8295744 C3.00560099,17.0801196 3.04208684,17.3759834 3.13520368,17.6861807 C3.16066525,17.772044 3.23555094,17.8413062 3.32314335,17.8600076 C3.52882453,17.903702 3.64194867,17.8331389 3.65986859,17.8318194 C3.66826724,17.8311981 3.67663381,17.8301507 3.68492722,17.8286874 C4.44170714,17.6960503 5.19688181,17.5784354 5.890084,17.7535191 C5.89058518,17.7536694 5.89113647,17.7533687 5.89163764,17.7535191 C6.61913957,17.9451298 7.25136361,18.450804 7.963675,18.8857427 C7.96492793,18.8865144 7.96552934,18.888103 7.96678227,18.8888747 L7.96678227,18.8873112 C8.43959839,19.1873062 8.98613196,19.4810662 9.61751904,19.5027523 L9.61751904,19.5043158 C9.61962396,19.5043659 9.62167877,19.5042657 9.62378369,19.5043158 C10.1006743,19.5313243 10.5687444,19.5010234 11.0254979,19.4698636 C11.028109,19.4699042 11.0307201,19.4699042 11.0333312,19.4698636 C11.4244362,19.4311259 11.8041695,19.3009844 12.1359106,19.0877577 C12.1406216,19.0850767 12.1453126,19.0826172 12.1500036,19.0799277 C12.8990158,18.6507944 13.5646029,18.1336911 14.2940845,17.8098953 C14.2951369,17.8094944 14.2961894,17.8087077 14.2971918,17.8083318 C14.5337852,17.7225612 14.8293818,17.7273975 15.1585819,17.7049753 C15.1616892,17.7048751 15.1648466,17.7050755 15.1679789,17.7049753 C15.772027,17.6863285 16.3772228,17.7187131 16.9768957,17.7989358 C16.9976683,17.8015516 17.0187697,17.8015516 17.0395423,17.7989358 C17.1182965,17.7895949 17.2043729,17.7367189 17.2462759,17.6830512 C17.2881789,17.6293835 17.3002522,17.5856741 17.3089225,17.5546386 C17.326273,17.4925675 17.3423507,17.462882 17.3136335,17.5139224 C17.3227398,17.4980839 17.330107,17.4812467 17.3355598,17.4638101 C17.4456724,17.0989919 17.5055825,16.7688549 17.6832482,16.5633556 C17.7630799,16.4853228 17.9004563,16.4461501 18.0559952,16.449037 C18.0674981,16.4492876 18.0790195,16.4487865 18.0904508,16.4474735 C18.6117904,16.3857688 19.0830328,16.1975657 19.5297579,16.0371795 C19.5350483,16.0352652 19.5402745,16.0331755 19.5454246,16.0309129 C19.7113778,15.9585804 19.9586563,15.8755835 20.1280375,15.637845 C20.1289397,15.6365721 20.1302427,15.6359958 20.1311448,15.6347129 L20.1295912,15.6331494 C20.2720645,15.4340785 20.2059197,15.160857 20.0042981,15.0365005 L20.0074053,15.0333684 C20.0010154,15.0290237 19.9950063,15.0265557 19.9886114,15.0224064 C19.9869074,15.0214743 19.9856545,15.0201814 19.9839004,15.0192744 L19.9839004,15.0208379 C19.7420395,14.8654869 19.4997076,14.8438955 19.3464741,14.7875027 C19.3433619,14.7863952 19.3402295,14.7853529 19.3370772,14.7843707 C18.3002917,14.4518418 17.4036641,13.7359668 16.7341127,12.8644451 C16.3623831,12.3787927 16.0480127,11.8510741 15.8398306,11.2874752 C15.839129,11.2854206 15.8389285,11.2832657 15.838277,11.2812111 C15.7567763,11.0364865 15.7526918,10.7696142 15.8727326,10.6078278 C15.8743213,10.6062843 15.875895,10.6047208 15.8774436,10.6031323 C16.0647117,10.3341101 16.4083607,10.1612033 16.7748581,10.0252754 C16.7763616,10.0247542 16.7780656,10.024233 16.7795691,10.0237119 C17.1846116,9.88281776 17.6278686,9.7186856 17.9933436,9.39417671 C17.9949373,9.39263325 17.996506,9.39106975 17.9980546,9.38948119 C18.0546019,9.33601392 18.122606,9.2664045 18.173465,9.16241005 C18.224329,9.0584156 18.2484454,8.89629796 18.1812983,8.75524801 C18.1812998,8.75472684 18.1812998,8.75420568 18.1812983,8.75368451 C18.0758316,8.53642335 17.8919213,8.42463745 17.7553017,8.34339045 C17.7547855,8.34338895 17.7542643,8.34338895 17.7537481,8.34339045 C17.5248476,8.2097952 17.2585095,8.20112829 17.027048,8.27605212 C17.0265469,8.27620245 17.0259956,8.27590178 17.0254944,8.27605212 C17.0239408,8.27655825 17.022337,8.27710447 17.0207834,8.27761562 C16.7707384,8.35370356 16.5666009,8.44468535 16.3770875,8.46866858 C16.3728827,8.46960568 16.3687069,8.47064801 16.3645582,8.47180059 C16.0952432,8.5197966 15.8344531,8.53132342 15.6315935,8.45614051 C15.629689,8.42574793 15.6287368,8.36643307 15.6206328,8.2932757 L15.6221865,8.2932757 C15.6072114,7.84650995 15.645065,7.38594128 15.6519411,6.90892477 C15.6519561,6.90786239 15.651926,6.90685513 15.6519411,6.90579275 C15.6725493,6.18101024 15.7017977,5.43485035 15.5955592,4.68362762 C15.5951081,4.67996442 15.5946019,4.67630773 15.5940055,4.67266557 C15.3626944,3.40545052 14.5572301,2.31401421 13.5360662,1.58762992 C12.7937245,1.06095667 11.9124077,0.767001217 11.0176746,0.684043392 C11.0171734,0.68399328 11.0166221,0.684093504 11.016121,0.684043392 C10.7158585,0.653731995 10.416012,0.642978908 10.1171429,0.646459204 L10.1171654,0.646451687 Z" id="path12604"></path>
                    </g>
                </g>
            </g>
        </g>
    </g>
</svg>